<?xml version="1.0" encoding="UTF-8" standalone="no"?>
<svg
   xmlns:dc="http://purl.org/dc/elements/1.1/"
   xmlns:cc="http://creativecommons.org/ns#"
   xmlns:rdf="http://www.w3.org/1999/02/22-rdf-syntax-ns#"
   xmlns:svg="http://www.w3.org/2000/svg"
   xmlns="http://www.w3.org/2000/svg"
   viewBox="0 0 207.88 377.37332"
   height="377.37332"
   width="207.88"
   xml:space="preserve"
   id="svg2"
   version="1.1"><metadata
     id="metadata8"><rdf:RDF><cc:Work
         rdf:about=""><dc:format>image/svg+xml</dc:format><dc:type
           rdf:resource="http://purl.org/dc/dcmitype/StillImage" /></cc:Work></rdf:RDF></metadata><defs
     id="defs6" /><g
     transform="matrix(1.3333333,0,0,-1.3333333,0,377.37333)"
     id="g10"><g
       transform="scale(0.1)"
       id="g12"><path
         id="path14"
         style="fill:#ffffff;fill-opacity:1;fill-rule:nonzero;stroke:none"
         d="M 0,2830.31 V -1.16797 H 1559.06 V 2830.31 H 0" /><path
         id="path16"
         style="fill:#ffffff;fill-opacity:1;fill-rule:nonzero;stroke:none"
         d="M 0,2830.31 V -4.33984 H 1558.15 V 2830.31 H 0" /><path
         id="path18"
         style="fill:#ed1d36;fill-opacity:1;fill-rule:nonzero;stroke:none"
         d="m 996.152,1935.93 -32.144,-15.69 H 859.004 l -0.828,15.69 h -79.539 l -32.184,-15.69 H 641.527 l -0.828,15.69 H 0 V -4.33984 H 1558.15 V 1935.93 H 996.152" /><path
         id="path20"
         style="fill:#ed1d36;fill-opacity:1;fill-rule:nonzero;stroke:none"
         d="m 146.723,2096 c 24.465,20.43 48.59,40.92 72.707,61.34 28.457,23.76 47.082,40.2 47.082,69.46 0,21.52 -12.375,30.33 -28.824,30.33 -23.754,0 -27.438,-23.04 -27.817,-42.77 h -65.707 c 0.746,17.53 1.43,39.79 16.109,62.11 22.957,35.82 63.52,41.25 83.282,41.25 60.258,0 92.047,-40.17 92.047,-83.63 0,-32.9 -9.872,-56.64 -44.586,-88.42 -16.407,-14.98 -32.856,-29.96 -49.676,-45.31 h 96.062 v -58.08 H 146.723 V 2096" /><path
         id="path22"
         style="fill:#ed1d36;fill-opacity:1;fill-rule:nonzero;stroke:none"
         d="m 436.457,2138 c 0,-16.05 5.039,-40.16 31.762,-40.16 31.769,0 31.769,32.14 31.769,40.16 v 78.94 c 0,8.39 0,40.19 -31.769,40.19 -27.395,0 -31.762,-25.63 -31.762,-40.19 z m -69.098,77.09 c 0,78.18 63.231,102.63 101.989,102.63 34.707,0 99.664,-22.62 99.664,-102.63 v -75.25 c 0,-75.26 -57.364,-102.67 -99.664,-102.67 -39.813,0 -101.989,26.31 -101.989,102.67 v 75.25" /><path
         id="path24"
         style="fill:#ed1d36;fill-opacity:1;fill-rule:nonzero;stroke:none"
         d="m 628.926,2254.53 h -44.188 v 58.11 h 113.211 v -270.36 h -69.023 v 212.25" /><path
         id="path26"
         style="fill:#ed1d36;fill-opacity:1;fill-rule:nonzero;stroke:none"
         d="m 873.324,2220.19 c 0,24.48 -19.719,36.94 -37.254,36.94 -19.718,0 -37.265,-14.64 -37.265,-36.21 0,-17.55 12.879,-36.9 37.265,-36.9 22.657,0 37.254,16.82 37.254,35.81 z m -104.023,-177.91 48.851,66.88 c 3.618,5.1 7.375,9.86 10.688,14.59 -0.445,0.39 -8.805,-0.73 -13.926,-0.73 -39.437,0 -85.125,30.33 -85.125,91.68 0,61.77 47.871,103.02 104.852,103.02 34.015,0 65.332,-12.4 83.695,-36.55 17.164,-19.33 23.039,-47.08 23.039,-67.92 0,-27.39 -11.441,-51.49 -24.922,-72.3 l -67.215,-98.67 h -79.937" /><path
         id="path28"
         style="fill:#6e6b6c;fill-opacity:1;fill-rule:nonzero;stroke:none"
         d="m 350.246,2745.63 c 15.469,2.92 32.133,2.57 46.586,-4.17 8.09,-3.6 14.949,-10.06 18.258,-18.29 9.18,-21.8 17.238,-45.34 13.957,-69.29 -19.563,-15.1 -44.031,-21.34 -67.926,-25.74 -5.98,11.81 -0.644,25.21 -3.652,37.57 -3.125,17.09 -6.477,35.96 -19.649,48.4 -10.613,0.06 -22.468,-3.63 -27.847,-13.49 9.105,-65.39 8.39,-132.68 -6.094,-197.31 -6.703,-29.5 -16.41,-58.48 -30.188,-85.49 -15.125,-28.2 -42.074,-48.12 -71.281,-59.94 -7.148,-2.73 -14.41,-6.59 -22.355,-5.82 -15.809,0.48 -30.746,8.6 -41.02,20.44 -9.633,10.88 -16.707,23.67 -23.34,36.49 -3.683,7.39 -8.121,14.5 -10.531,22.46 -3.391,9.83 -8.5859,19.46 -8.246,30.15 0.4883,5.13 1.3984,11.06 5.836,14.47 12.797,10.88 26.266,21.15 39.363,31.75 4.223,3.87 10.883,3.89 15.469,0.86 3.238,-2.14 3.949,-6.17 5.078,-9.63 7.758,-29.15 12.652,-59.47 26.309,-86.72 1.625,-2.97 2.75,-6.6 5.988,-8.26 4.668,0.36 7.977,4.89 8.352,9.34 10.914,86.32 7.156,174.97 31.316,259.32 2.48,11.22 10.539,19.97 18.141,28.08 25.968,25.82 61.867,39.08 97.476,44.82" /><path
         id="path30"
         style="fill:#6e6b6c;fill-opacity:1;fill-rule:nonzero;stroke:none"
         d="m 798.367,2661.46 c 22.785,9.77 47.25,15.02 71.789,18.47 13.328,-0.16 26.496,-7.91 33.645,-19.13 9.633,-13.37 16.711,-29.67 15.129,-46.51 -0.602,-2.11 0,-5.2 -2.184,-6.51 -18.894,-12.82 -41.019,-20.29 -63.297,-23.96 -8.285,19.62 -8.129,43.96 -25.293,58.88 -8.133,0.21 -15.207,-4.08 -21.527,-8.75 2.781,-18.32 13.926,-33.65 19.418,-51.07 6.094,-15.49 6.246,-32.63 12.871,-47.95 8.586,2.94 14.148,13.28 24.238,11.37 5.649,-8.72 11.442,-17.79 12.723,-28.32 -11.441,-8.83 -27.176,-12.44 -35.754,-24.61 1.883,-25.43 2.027,-51.21 -2.637,-76.39 -8.961,-53.44 -35.597,-104.43 -77.133,-139.76 -9.453,-0.33 -18.031,3.95 -25.859,8.82 2.863,14.52 12.195,26.39 17.692,39.81 13.023,39.51 12.57,81.91 8.882,122.92 -9.937,2.41 -16.933,-7.89 -26.722,-7.45 -3.391,1.46 -4.965,5.32 -7.231,8.11 -4.062,5.3 -7.746,12.49 -4.926,19.05 8.051,10.28 23.672,9.61 31.95,19.58 4.293,5.44 0.082,12.27 -0.145,18.32 -3.199,30.06 -14.226,59.09 -13.18,89.63 0.414,7.08 -0.3,14.83 3.848,20.99 12.043,20.52 31.988,35.39 53.703,44.46" /><path
         id="path32"
         style="fill:#6e6b6c;fill-opacity:1;fill-rule:nonzero;stroke:none"
         d="m 1092.8,2600.51 c 18.29,34.55 49.31,60.54 82.81,79.67 4.81,-1.35 11.58,-5.19 9.47,-11.27 -5.26,-23.01 -14.37,-45.72 -12.57,-69.72 1.44,-10.99 0.83,-22.09 0.91,-33.17 0.45,-62.87 -2.11,-125.72 -2.86,-188.63 -22.36,-12.34 -46.59,-20.29 -70,-30.29 -5.35,-2.7 -11.6,2.55 -11.3,8.15 -0.44,74.17 -0.9,148.32 0.39,222.45 0.44,7.6 -1.06,16 3.15,22.81" /><path
         id="path34"
         style="fill:#6e6b6c;fill-opacity:1;fill-rule:nonzero;stroke:none"
         d="m 1278.57,2481.05 c -4.89,-16.48 -9.63,-34.12 -5.34,-51.29 2.86,-12.71 10.38,-24.03 20.47,-32.12 22.28,-1.3 38.16,16.56 55.63,27.4 -3.84,29.84 -14.46,58.31 -18.67,88.09 -2.26,7.5 -1.43,15.82 -5.05,22.93 -22.88,-10.27 -40.03,-31.12 -47.04,-55.01 z m 103.95,189.91 c 5.5,0.95 11.75,5.01 17.01,1.32 2.78,-1.75 1.73,-5.49 1.73,-8.2 -3.68,-44.08 2.56,-88.26 11.74,-131.31 10.7,-50.83 24.47,-101.41 27.18,-153.57 -23.49,-14.78 -49.75,-24.4 -76.03,-33.04 -6.17,12.34 -6.77,26.49 -12.71,38.85 -26.35,-10.14 -47.57,-29.46 -73.02,-41.39 -3.76,-1.98 -7.91,-0.2 -11.74,0.3 -33.79,6.94 -60.9,35.37 -70,68.1 -1.43,22.35 -0.23,45.5 8.5,66.38 6.25,15.55 17.09,29.23 30.94,38.68 27.63,18.73 55.62,37.08 84.9,53.16 2.94,24.21 -2.03,50.5 10.02,72.85 11.06,17.58 32.66,22.83 51.48,27.87" /><path
         id="path36"
         style="fill:#6e6b6c;fill-opacity:1;fill-rule:nonzero;stroke:none"
         d="m 397.102,2543.21 c -4.938,-4.7 -2.223,-11.91 -1.739,-17.78 2.153,-18.18 3.653,-37.41 14.266,-53.05 15.996,6.12 31.461,13.8 45.84,23.03 0,0.94 0.074,2.86 0.074,3.85 -12.23,14.39 -20.922,32.36 -37.184,42.8 -6.164,3.82 -15.277,6.42 -21.257,1.15 z m 25.964,35.34 c 19.004,1.35 38.239,-5.08 53.891,-15.86 19.313,-13.42 33.91,-32.71 44.598,-53.43 1.398,-2.84 3.238,-6 2.183,-9.29 -0.828,-4.29 -4.707,-6.72 -8.015,-8.9 -4.856,-2.98 -9.332,-6.36 -14.414,-8.9 -27.246,-13.21 -52.875,-29.39 -79.524,-43.78 -1.543,-14.67 9.371,-25.79 19.235,-35.05 21.07,0.46 38.535,15.43 59.46,17.11 4.969,-7.08 8.473,-15.02 10.618,-23.4 -8.504,-12.88 -24.168,-16.65 -37.825,-21.54 -22.582,-9.85 -46.554,-16.22 -69.21,-26.17 -15.583,0.69 -30.415,8.48 -41.247,19.55 -12.351,12.64 -20.628,28.56 -28.906,44.01 -18.816,34.89 -18.558,77.76 -4.894,114.34 3.086,5.01 8.804,7.66 13.398,11.14 25.215,16.52 53.219,28.01 80.652,40.17" /><path
         id="path38"
         style="fill:#6e6b6c;fill-opacity:1;fill-rule:nonzero;stroke:none"
         d="m 616.773,2545.87 c -5.867,-2.99 -6.019,-10.6 -6.394,-16.28 0.301,-19.59 5.113,-38.93 11.59,-57.34 16.406,6.04 31.242,15.31 46.742,23.37 -7.152,17.69 -17.383,35.7 -34.473,45.24 -5.422,2.63 -11.371,5.55 -17.465,5.01 z m 23.641,32.38 c 4.891,2.35 10.387,0.81 15.578,0 20.094,-3.69 38.465,-14.83 52.535,-29.41 12.871,-13.14 22.957,-28.72 30.633,-45.32 -5.265,-9.78 -14.898,-16.05 -24.644,-20.71 -26.989,-12.93 -51.973,-29.3 -78.551,-43.23 1.211,-13.91 8.586,-27.17 19.422,-35.78 20.781,3.51 39.289,16.78 60.898,16.53 4.813,-8.06 9.934,-16.89 7.906,-26.62 -34.925,-19.08 -73.316,-30.55 -111.253,-42.35 -15.508,0.12 -27.778,11.73 -37.895,22.3 -7.266,8.91 -16.523,16.57 -20.742,27.52 -12.192,26.23 -22.172,54.38 -22.016,83.64 0.602,16.71 4.18,34.41 14.492,47.91 29.352,18.69 61.266,33 93.637,45.52" /><path
         id="path40"
         style="fill:#6e6b6c;fill-opacity:1;fill-rule:nonzero;stroke:none"
         d="m 951.297,2534.91 c -3.91,-21.58 4.293,-42.81 11.898,-62.62 16.18,6.98 31.16,16.07 46.655,24.35 -6.85,16.11 -16.623,31.44 -30.776,42.07 -3.765,2.58 -7.601,6.43 -12.652,5.54 -5.938,-0.42 -14.668,-1.96 -15.125,-9.34 z m 24.84,41.55 c 3.91,1.23 7.832,3 11.968,3.07 24.455,-2.09 47.115,-14.75 63.605,-32.7 10.61,-11.6 19.19,-25.07 25.14,-39.68 2.11,-4.83 -0.68,-10.49 -5.05,-13.11 -5.04,-3.13 -9.48,-7.15 -14.44,-10.44 -28.38,-13.55 -55.86,-28.94 -82.126,-46.16 2.485,-13.4 10.618,-24.75 20.176,-34.15 21,2.01 38.68,18.83 60.21,16.59 5.58,-7.43 9.71,-16.83 7.76,-26.34 -31.92,-17.45 -66.771,-28.4 -100.794,-41.12 -3.91,-1.21 -7.824,-4.03 -12.043,-2.58 -21.828,6.05 -39.066,22.77 -51.035,41.4 -13.016,19.52 -19.262,42.42 -23.856,65.16 -3.464,23.37 -2.41,48.27 7.903,69.93 1.582,3.15 2.855,6.83 6.25,8.57 27.547,16.12 56,31.21 86.332,41.56" /><path
         id="path42"
         style="fill:#6bcfee;fill-opacity:1;fill-rule:nonzero;stroke:none"
         d="m 331.262,1409.06 c -107.782,-107.81 -107.782,-283.19 0,-390.98 22.242,-22.24 48.176,-40.42 77.308,-54.119 v -0.07 c 0,0 4.664,-2.071 5.418,-2.45 l 9.563,-4.25 v 110.269 c -8.285,5.95 -16.192,12.42 -23.297,19.57 -33.727,33.8 -52.277,78.7 -52.277,126.53 0,47.88 18.55,92.79 52.277,126.5 l 164.644,164.63 10.657,10.63 v 137.94 z m -65.563,-537.38 -8.535,6.742 v 0 c -12.465,10.008 -24.051,20.359 -34.668,30.969 -167.6952,167.699 -167.6952,440.619 0,608.399 l 58.942,58.88 V 1437.96 C 171.691,1318.05 165.816,1134.15 265.699,1007.55 V 871.68" /><path
         id="path44"
         style="fill:#6bcfee;fill-opacity:1;fill-rule:nonzero;stroke:none"
         d="m 1227.75,1097.49 c 107.72,107.79 107.72,283.15 0,390.91 -0.45,0.47 -13.32,12.98 -13.32,12.98 l -0.23,-0.41 c -2.63,2.33 -5.26,4.51 -8.05,6.69 v -173.4 c 14.38,-60.41 -3.01,-123.49 -47.34,-167.82 l -75.5,-75.49 V 952.98 Z M 1033.11,685.391 v 137.968 l 234.39,234.401 c 80.61,80.53 113.51,197.24 89.34,307.13 v 210.31 c 0.53,-0.64 1.13,-1.3 1.73,-1.95 l 0.16,0.2 9.1,-11.33 c 65.94,-82.08 99.29,-185.5 93.86,-291.28 -5.42,-106.58 -49.9,-206.76 -125.17,-282.11 L 1033.11,685.391" /><path
         id="path46"
         style="fill:#d5bb2b;fill-opacity:1;fill-rule:nonzero;stroke:none"
         d="m 830.926,909.391 260.594,260.589 0.45,-0.26 35.97,36.09 c 49.08,49.08 49.08,128.96 0,178.05 -23.7,23.73 -55.32,36.8 -89.04,36.8 -33.64,0 -65.259,-13.07 -89.045,-36.8 L 653.27,1087.03 c -33.758,-33.68 -78.614,-52.23 -126.454,-52.31 -33.949,0 -66.839,9.48 -95.332,27.4 l -2.523,1.66 c -1.883,1.2 -3.641,2.48 -5.41,3.68 V 957.191 l 6.238,-2.711 v 0.532 c 31.09,-11.672 63.801,-17.614 97.402,-17.614 73.762,0 143.016,28.684 195.032,80.682 l 296.727,296.76 1.96,1.88 c 4.75,3.99 11.14,6.14 17.84,6.14 7.75,0 15.2,-2.88 20.25,-7.98 9.79,-9.75 10.99,-25.29 3.08,-36.48 L 761.961,978.34 c -62.695,-62.738 -146.285,-97.281 -235.215,-97.281 -88.973,0 -172.488,34.543 -235.223,97.281 -4.218,4.262 -8.433,8.66 -12.796,13.519 -4.52,5.082 -8.887,10.341 -13.028,15.691 V 871.68 l 12.727,-10.039 0.07,0.668 c 72.109,-50.918 159.426,-78.77 248.25,-78.77 115.082,0 223.098,44.672 304.18,125.852" /><path
         id="path48"
         style="fill:#2b4795;fill-opacity:1;fill-rule:nonzero;stroke:none"
         d="m 728.09,1597.18 -264.121,-264.14 -0.414,0.37 -34.438,-34.45 c -23.785,-23.79 -36.851,-55.4 -36.851,-89.05 0,-33.61 13.066,-65.29 36.851,-89.01 23.785,-23.78 55.36,-36.88 89.043,-36.88 33.645,0 65.258,13.1 89.043,36.81 l 298.469,298.66 c 33.871,33.75 78.738,52.42 126.608,52.42 47.79,0 92.73,-18.67 126.53,-52.46 19.95,-19.91 34.47,-43.81 43.35,-70.98 h 0.08 c 1.58,-4.69 2.86,-9.45 3.91,-14.21 v 173.4 c -49.08,39.99 -109.9,61.75 -173.87,61.75 -73.839,0 -143.245,-28.76 -195.553,-80.98 L 537.246,1188.87 c -5.234,-4.73 -11.937,-7.33 -19.086,-7.33 -7.605,0 -14.68,2.97 -20.094,8.31 -5.418,5.3 -8.285,12.46 -8.285,20.06 0,5.72 1.696,11.18 4.821,15.8 l 302.437,302.51 c 62.793,62.69 146.27,97.24 235.241,97.24 88.97,0 172.52,-34.55 235.22,-97.28 34.32,-34.33 60.21,-74.82 76.93,-120.4 5.11,-14.13 9.25,-28.45 12.41,-42.89 v 210.31 c -6.62,7.64 -13.47,15.05 -20.32,21.94 -81.14,81.1 -189.23,125.84 -304.24,125.84 -115.01,0 -223.085,-44.74 -304.19,-125.8" /><path
         id="path50"
         style="fill:#ffffff;fill-opacity:1;fill-rule:nonzero;stroke:none"
         d="m 575.555,1515.32 420.597,420.61 H 858.176 L 575.555,1653.26 v -137.94" /><path
         id="path52"
         style="fill:#ffffff;fill-opacity:1;fill-rule:nonzero;stroke:none"
         d="M 640.699,1935.93 281.438,1576.67 v -138.71 c 1.5,1.66 2.937,3.36 4.511,4.95 v 0 l 2.11,2.32 c 1.129,1.17 2.296,2.41 3.464,3.58 l 487.114,487.12 H 640.699" /><path
         id="path54"
         style="fill:#ffffff;fill-opacity:1;fill-rule:nonzero;stroke:none"
         d="M 866.379,518.59 1033.11,685.391 V 823.359 L 728.387,518.59 h 137.992" /><path
         id="path56"
         style="fill:#ffffff;fill-opacity:1;fill-rule:nonzero;stroke:none"
         d="m 510.938,518.59 h 137.968 l 434.404,434.39 v 137.97 L 510.938,518.59" /><path
         id="path58"
         style="fill:#ffffff;fill-opacity:1;fill-rule:nonzero;stroke:none"
         d="m 1032.28,1722.98 c -115.01,0 -223.085,-44.74 -304.19,-125.8 l -264.121,-264.14 -0.414,0.37 -34.438,-34.45 c -23.785,-23.79 -36.851,-55.4 -36.851,-89.05 0,-33.61 13.066,-65.29 36.851,-89.01 23.785,-23.78 55.36,-36.88 89.043,-36.88 33.645,0 65.258,13.1 89.043,36.81 l 298.469,298.66 c 33.871,33.75 78.738,52.42 126.608,52.42 47.79,0 92.73,-18.67 126.53,-52.46 19.95,-19.91 34.47,-43.81 43.35,-70.98 h 0.08 c 1.58,-4.69 2.86,-9.45 3.91,-14.21 14.38,-60.41 -3.01,-123.49 -47.34,-167.82 l -75.5,-75.49 -572.372,-572.36 h 137.968 l 434.404,434.39 144.44,144.51 c 107.72,107.79 107.72,283.15 0,390.91 -0.45,0.47 -13.32,12.98 -13.32,12.98 l -0.23,-0.41 c -2.63,2.33 -5.26,4.51 -8.05,6.69 -49.08,39.99 -109.9,61.75 -173.87,61.75 -73.839,0 -143.245,-28.79 -195.553,-81.01 L 537.246,1188.87 c -5.234,-4.73 -11.937,-7.33 -19.086,-7.33 -7.605,0 -14.68,2.97 -20.094,8.31 -5.418,5.3 -8.285,12.46 -8.285,20.06 0,5.72 1.696,11.18 4.821,15.8 l 302.437,302.51 c 62.793,62.69 146.27,97.24 235.241,97.24 88.97,0 172.52,-34.55 235.22,-97.28 34.32,-34.33 60.21,-74.82 76.93,-120.4 5.11,-14.13 9.25,-28.45 12.41,-42.89 24.17,-109.89 -8.73,-226.6 -89.34,-307.13 L 1033.11,823.359 728.387,518.59 h 137.992 l 166.731,166.801 303.41,303.339 c 75.27,75.35 119.75,175.53 125.17,282.11 5.43,105.78 -27.92,209.2 -93.86,291.28 l -9.1,11.33 -0.16,-0.2 c -0.6,0.65 -1.2,1.31 -1.73,1.95 -6.62,7.64 -13.47,15.05 -20.32,21.94 -81.14,81.1 -189.23,125.84 -304.24,125.84 z m 0,-8.23 c 112.8,0 218.78,-43.84 298.41,-123.41 6.58,-6.62 13.29,-13.87 19.8,-21.37 0.61,-0.75 1.31,-1.51 2,-2.28 l 1.81,-1.88 7.11,-8.85 c 64.68,-80.51 97.38,-181.97 92.06,-285.7 -5.31,-104.5 -48.91,-202.78 -122.77,-276.709 L 1027.28,691.211 862.969,526.82 H 748.262 l 290.668,290.719 234.39,234.391 c 81.31,81.23 116.39,201.83 91.56,314.72 -3.23,14.79 -7.51,29.56 -12.72,43.96 -17.12,46.67 -43.64,88.18 -78.84,123.39 -64.26,64.29 -149.86,99.7 -241.04,99.7 -91.089,0 -176.694,-35.4 -241.061,-99.66 l -302.438,-302.5 -0.558,-0.56 -0.446,-0.66 c -4.074,-6.03 -6.226,-13.09 -6.226,-20.41 0,-9.94 3.82,-19.16 10.73,-25.91 6.981,-6.9 16.172,-10.69 25.879,-10.69 9.129,0 17.867,3.36 24.906,9.74 l 299.477,299.52 c 50.777,50.69 118.156,78.6 189.737,78.6 62.26,0 120.58,-20.71 168.79,-59.99 2.65,-2.08 5.17,-4.16 7.67,-6.38 l 3.8,-3.06 c 3.7,-3.6 8.81,-8.58 9.39,-9.16 104.51,-104.55 104.51,-274.69 0,-379.27 L 1077.49,958.801 645.496,526.82 H 530.813 l 558.317,558.3 75.5,75.5 c 46.19,46.19 64.7,111.81 49.56,175.42 -1.17,5.29 -2.57,10.36 -4.15,15.05 l -1.96,5.61 h -0.04 c -9.44,26.18 -24.03,49.22 -43.41,68.57 -35.38,35.38 -82.39,54.87 -132.35,54.87 -49.921,0 -96.948,-19.47 -132.432,-54.83 L 601.391,1126.66 c -22.254,-22.19 -51.817,-34.4 -83.231,-34.4 -31.437,0 -60.996,12.24 -83.23,34.47 -22.203,22.14 -34.43,51.68 -34.43,83.18 0,31.46 12.23,61.02 34.438,83.23 l 28.906,28.92 0.414,-0.37 5.531,5.53 264.117,264.13 c 79.614,79.57 185.578,123.4 298.374,123.4" /><path
         id="path60"
         style="fill:#ffffff;fill-opacity:1;fill-rule:nonzero;stroke:none"
         d="M 996.152,1935.93 H 858.176 L 575.555,1653.26 331.262,1409.06 c -107.782,-107.81 -107.782,-283.19 0,-390.98 22.242,-22.24 48.176,-40.42 77.308,-54.119 v -0.07 c 0,0 4.664,-2.071 5.418,-2.45 l 9.563,-4.25 6.238,-2.711 v 0.532 c 31.09,-11.672 63.801,-17.614 97.402,-17.614 73.762,0 143.016,28.684 195.032,80.682 l 296.727,296.76 1.96,1.88 c 4.75,3.99 11.14,6.14 17.84,6.14 7.75,0 15.2,-2.88 20.25,-7.98 9.79,-9.75 10.99,-25.29 3.08,-36.48 L 761.961,978.34 c -62.695,-62.738 -146.285,-97.281 -235.215,-97.281 -88.973,0 -172.488,34.543 -235.223,97.281 -4.218,4.262 -8.433,8.648 -12.796,13.519 -4.52,5.082 -8.887,10.341 -13.028,15.691 -99.883,126.6 -94.008,310.5 15.739,430.41 1.5,1.66 2.937,3.36 4.511,4.95 l 2.11,2.32 c 1.129,1.17 2.296,2.41 3.464,3.57 l 487.114,487.13 H 640.699 l -359.261,-359.26 -58.942,-58.88 c -167.6952,-167.78 -167.6952,-440.7 0,-608.399 10.617,-10.61 22.203,-20.961 34.668,-30.969 l 8.535,-6.742 12.727,-10.039 0.07,0.668 c 72.109,-50.918 159.426,-78.77 248.25,-78.77 115.082,0 223.098,44.672 304.18,125.852 l 260.594,260.589 0.45,-0.26 35.97,36.09 c 49.08,49.08 49.08,128.96 0,178.05 -23.7,23.73 -55.32,36.8 -89.04,36.8 -33.64,0 -65.259,-13.07 -89.045,-36.8 L 653.27,1087.03 c -33.758,-33.68 -78.614,-52.23 -126.454,-52.31 -33.949,0 -66.839,9.48 -95.332,27.4 l -2.523,1.66 c -1.883,1.2 -3.641,2.48 -5.41,3.68 -8.285,5.95 -16.192,12.42 -23.297,19.57 -33.727,33.8 -52.277,78.7 -52.277,126.53 0,47.88 18.55,92.79 52.277,126.5 l 164.644,164.63 10.657,10.63 420.597,420.61 z m -19.875,-8.23 -406.539,-406.55 -10.66,-10.64 -164.644,-164.63 c -35.27,-35.25 -54.692,-82.24 -54.692,-132.32 0,-50 19.422,-97 54.672,-132.33 6.977,-7.02 14.938,-13.71 24.512,-20.58 l 1.762,-1.22 c 1.25,-0.87 2.519,-1.75 3.761,-2.54 l 2.653,-1.74 c 29.824,-18.75 64.304,-28.66 99.73,-28.66 50.008,0.08 96.977,19.51 132.262,54.72 l 296.578,296.82 c 22.226,22.18 51.788,34.39 83.228,34.39 31.52,0 61.07,-12.21 83.22,-34.38 45.87,-45.89 45.87,-120.54 -0.01,-166.42 l -31.47,-31.58 -0.44,0.27 -4.51,-4.51 L 825.102,915.211 C 745.598,835.609 639.641,791.77 526.746,791.77 c -86.469,0 -172.945,27.441 -243.5,77.269 l -8.594,6.07 -3.851,3.039 -8.481,6.692 c -12.222,9.82 -23.664,20.039 -34,30.371 C 63.8359,1079.7 63.8359,1347.4 228.316,1511.96 l 58.942,58.89 356.851,356.85 H 758.762 L 285.703,1454.63 c -0.859,-0.86 -1.723,-1.76 -2.57,-2.65 l -1.156,-1.2 -1.895,-2.09 c -1.187,-1.21 -2.309,-2.46 -3.43,-3.72 l -1.289,-1.45 c -111.48,-121.81 -118.414,-311.43 -16.172,-441.01 4.278,-5.53 8.782,-10.951 13.411,-16.151 4.058,-4.519 8.214,-8.91 13.097,-13.839 64.285,-64.29 149.891,-99.7 241.047,-99.7 91.192,0 176.793,35.41 241.035,99.7 l 300.119,300.06 0.5,0.5 0.41,0.57 c 10.35,14.65 8.67,34.44 -3.96,47.02 -6.56,6.62 -16.07,10.42 -26.1,10.42 -8.72,0 -16.94,-2.86 -23.13,-8.06 l -0.22,-0.18 -0.2,-0.2 -2.07,-1.99 -296.732,-296.76 c -50.48,-50.47 -117.675,-78.271 -189.207,-78.271 -32.511,0 -64.308,5.75 -94.507,17.082 l -8.368,3.141 -6.613,2.937 c -0.324,0.16 -1.312,0.621 -2.387,1.102 l -3.242,1.531 c -28.183,13.25 -53.414,30.908 -74.992,52.478 -104.566,104.58 -104.566,274.75 -0.004,379.34 l 244.301,244.2 280.207,280.26 h 114.691" /><g
         transform="scale(10)"
         id="g62"><text
           id="text68"
           style="font-variant:normal;font-weight:bold;font-size:14.92129993px;font-family:Neutraface2Text;-inkscape-font-specification:Neutraface2Text-Bold;writing-mode:lr-tb;fill:#ffffff;fill-opacity:1;fill-rule:nonzero;stroke:none"
           transform="matrix(1,0,0,-1,7.67227,29.4582)"><tspan
             id="tspan64"
             y="0"
             x="0 8.4750986 12.93653 21.12842 24.604982 35.243679 47.359383 56.923828 67.324234 71.785172 82.632866 86.109428 99.912125 112.02733 121.59276 130.14255">FIS NORDIC WORLD</tspan><tspan
             id="tspan66"
             y="15.6762"
             x="0 7.758791 17.1294 21.157721 24.201666 34.616669 45.001972 54.655777 66.786674 75.501038 79.52935 91.212952 101.41904 109.17784 119.56263 123.59095 132.3058">SKI CHAMPIONSHIPS</tspan></text>
</g><path
         id="path70"
         style="fill:#231f20;fill-opacity:1;fill-rule:nonzero;stroke:none"
         d="m 1425.41,2182.86 v 24.44 h -43.69 v 84.27 h -28.05 v -108.71 z m -201.59,54.28 c 0,-33.09 24.93,-56.24 58.18,-56.24 33.25,0 58.03,23.15 58.03,56.24 0,33.09 -24.78,56.22 -58.03,56.22 -33.25,0 -58.18,-23.13 -58.18,-56.22 m 87.7,0 c 0,-17.61 -11.61,-31.48 -29.52,-31.48 -17.91,0 -29.66,13.87 -29.66,31.48 0,17.76 11.75,31.45 29.66,31.45 17.91,0 29.52,-13.69 29.52,-31.45 m -97.13,-54.28 -22.16,39.93 c 10.28,3.6 21.68,13.69 21.68,32.6 0,20.21 -13.71,36.18 -37.83,36.18 h -54.43 v -108.71 h 28.03 v 36.5 h 14.36 l 18.24,-36.5 z m -29.01,72.7 c 0,-7.67 -6.02,-11.71 -13.52,-11.71 h -22.18 v 23.27 h 22.18 c 7.5,0 13.52,-4.07 13.52,-11.56 m -111.32,-72.7 h 28.03 v 108.71 h -28.03 z m -71.69,0 v 84.26 h -30.507 v 24.45 h 88.867 v -24.45 h -30.34 v -84.26 h -28.02" /></g></g></svg>